<mxfile host="app.diagrams.net" modified="2024-07-15T11:54:41.628Z" agent="Mozilla/5.0 (Macintosh; Intel Mac OS X 10_15_7) AppleWebKit/605.1.15 (KHTML, like Gecko) Version/16.6 Safari/605.1.15" version="24.6.5" etag="k4P6mZ3O8-v8t4_H49sL" type="github">
  <diagram name="第 1 页" id="uLCPjfLbhj2a8HuwRLUp">
    <mxGraphModel>
      <root>
        <mxCell id="0" />
        <mxCell id="1" parent="0" />
      </root>
    </mxGraphModel>
  </diagram>
</mxfile>
